<mxfile host="app.diagrams.net" modified="2022-09-22T13:40:12.929Z" agent="5.0 (Windows NT 10.0; Win64; x64) AppleWebKit/537.36 (KHTML, like Gecko) Chrome/105.0.0.0 Safari/537.36" etag="Ze5UlN8aE-v2yH59GhaO" version="20.3.5" type="github">
  <diagram id="w5DIDmxetOVCwucGhKPN" name="Página-1">
    <mxGraphModel dx="869" dy="820" grid="1" gridSize="10" guides="1" tooltips="1" connect="1" arrows="1" fold="1" page="1" pageScale="1" pageWidth="827" pageHeight="1169" math="0" shadow="0">
      <root>
        <mxCell id="0" />
        <mxCell id="1" parent="0" />
        <mxCell id="sKPG98DoeoIHlue1-gec-1" value="MAIN&lt;br&gt;(ambiente de produção)" style="rounded=1;whiteSpace=wrap;html=1;" parent="1" vertex="1">
          <mxGeometry x="45" y="160" width="120" height="60" as="geometry" />
        </mxCell>
        <mxCell id="sKPG98DoeoIHlue1-gec-2" value="QAS&lt;br&gt;(ambiente de qualidade)" style="rounded=1;whiteSpace=wrap;html=1;" parent="1" vertex="1">
          <mxGeometry x="175" y="160" width="120" height="60" as="geometry" />
        </mxCell>
        <mxCell id="sKPG98DoeoIHlue1-gec-3" value="DEV&lt;br&gt;(ambiente de desenvolvimento)" style="rounded=1;whiteSpace=wrap;html=1;" parent="1" vertex="1">
          <mxGeometry x="305" y="160" width="120" height="60" as="geometry" />
        </mxCell>
        <mxCell id="sKPG98DoeoIHlue1-gec-9" value="" style="edgeStyle=orthogonalEdgeStyle;rounded=0;orthogonalLoop=1;jettySize=auto;html=1;" parent="1" source="sKPG98DoeoIHlue1-gec-4" target="sKPG98DoeoIHlue1-gec-8" edge="1">
          <mxGeometry relative="1" as="geometry" />
        </mxCell>
        <mxCell id="sKPG98DoeoIHlue1-gec-4" value="git pull origin dev" style="whiteSpace=wrap;html=1;rounded=1;" parent="1" vertex="1">
          <mxGeometry x="215" y="310" width="120" height="60" as="geometry" />
        </mxCell>
        <mxCell id="sKPG98DoeoIHlue1-gec-7" value="" style="edgeStyle=orthogonalEdgeStyle;rounded=0;orthogonalLoop=1;jettySize=auto;html=1;" parent="1" source="sKPG98DoeoIHlue1-gec-6" target="sKPG98DoeoIHlue1-gec-4" edge="1">
          <mxGeometry relative="1" as="geometry" />
        </mxCell>
        <mxCell id="sKPG98DoeoIHlue1-gec-6" value="DEV&lt;br&gt;(ambiente de desenvolvimento)" style="rounded=1;whiteSpace=wrap;html=1;" parent="1" vertex="1">
          <mxGeometry x="45" y="310" width="120" height="60" as="geometry" />
        </mxCell>
        <mxCell id="sKPG98DoeoIHlue1-gec-11" value="" style="edgeStyle=orthogonalEdgeStyle;rounded=0;orthogonalLoop=1;jettySize=auto;html=1;" parent="1" source="sKPG98DoeoIHlue1-gec-8" target="sKPG98DoeoIHlue1-gec-10" edge="1">
          <mxGeometry relative="1" as="geometry" />
        </mxCell>
        <mxCell id="sKPG98DoeoIHlue1-gec-8" value="git checkout -b MMDIRECT-&amp;lt;US&amp;gt;" style="whiteSpace=wrap;html=1;rounded=1;" parent="1" vertex="1">
          <mxGeometry x="385" y="310" width="120" height="60" as="geometry" />
        </mxCell>
        <mxCell id="sKPG98DoeoIHlue1-gec-10" value="Neste ponto inicia-se o desenvolvimento da solução em questão." style="whiteSpace=wrap;html=1;rounded=1;" parent="1" vertex="1">
          <mxGeometry x="555" y="310" width="120" height="60" as="geometry" />
        </mxCell>
        <mxCell id="sKPG98DoeoIHlue1-gec-12" value="Ambientes produtivos e não produtivos:" style="text;html=1;strokeColor=none;fillColor=none;align=left;verticalAlign=middle;whiteSpace=wrap;rounded=0;" parent="1" vertex="1">
          <mxGeometry x="40" y="110" width="230" height="30" as="geometry" />
        </mxCell>
        <mxCell id="sKPG98DoeoIHlue1-gec-13" value="O que fazer antes de iniciar um desenvolvimento:" style="text;html=1;strokeColor=none;fillColor=none;align=left;verticalAlign=middle;whiteSpace=wrap;rounded=0;" parent="1" vertex="1">
          <mxGeometry x="40" y="270" width="290" height="30" as="geometry" />
        </mxCell>
        <mxCell id="sKPG98DoeoIHlue1-gec-15" value="O que fazer depois de concluir um desenvolvimento:" style="text;html=1;strokeColor=none;fillColor=none;align=left;verticalAlign=middle;whiteSpace=wrap;rounded=0;" parent="1" vertex="1">
          <mxGeometry x="40" y="430" width="290" height="30" as="geometry" />
        </mxCell>
        <mxCell id="sKPG98DoeoIHlue1-gec-16" value="" style="edgeStyle=orthogonalEdgeStyle;rounded=0;orthogonalLoop=1;jettySize=auto;html=1;" parent="1" source="sKPG98DoeoIHlue1-gec-17" target="sKPG98DoeoIHlue1-gec-21" edge="1">
          <mxGeometry relative="1" as="geometry" />
        </mxCell>
        <mxCell id="sKPG98DoeoIHlue1-gec-17" value="git add ." style="whiteSpace=wrap;html=1;rounded=1;" parent="1" vertex="1">
          <mxGeometry x="215" y="470" width="120" height="60" as="geometry" />
        </mxCell>
        <mxCell id="sKPG98DoeoIHlue1-gec-18" value="" style="edgeStyle=orthogonalEdgeStyle;rounded=0;orthogonalLoop=1;jettySize=auto;html=1;" parent="1" source="sKPG98DoeoIHlue1-gec-19" target="sKPG98DoeoIHlue1-gec-17" edge="1">
          <mxGeometry relative="1" as="geometry" />
        </mxCell>
        <mxCell id="sKPG98DoeoIHlue1-gec-19" value="MMDIRECT-&amp;lt;US&amp;gt;" style="rounded=1;whiteSpace=wrap;html=1;" parent="1" vertex="1">
          <mxGeometry x="45" y="470" width="120" height="60" as="geometry" />
        </mxCell>
        <mxCell id="sKPG98DoeoIHlue1-gec-20" value="" style="edgeStyle=orthogonalEdgeStyle;rounded=0;orthogonalLoop=1;jettySize=auto;html=1;" parent="1" source="sKPG98DoeoIHlue1-gec-21" target="sKPG98DoeoIHlue1-gec-22" edge="1">
          <mxGeometry relative="1" as="geometry" />
        </mxCell>
        <mxCell id="sKPG98DoeoIHlue1-gec-21" value="git commit -m &quot;descrever o que foi feito em poucas palavras&quot;" style="whiteSpace=wrap;html=1;rounded=1;" parent="1" vertex="1">
          <mxGeometry x="385" y="470" width="120" height="60" as="geometry" />
        </mxCell>
        <mxCell id="sKPG98DoeoIHlue1-gec-22" value="git push origin MMDIRECT-&amp;lt;US&amp;gt;" style="whiteSpace=wrap;html=1;rounded=1;" parent="1" vertex="1">
          <mxGeometry x="555" y="470" width="120" height="60" as="geometry" />
        </mxCell>
        <mxCell id="sKPG98DoeoIHlue1-gec-24" value="" style="edgeStyle=orthogonalEdgeStyle;rounded=0;orthogonalLoop=1;jettySize=auto;html=1;" parent="1" source="sKPG98DoeoIHlue1-gec-25" target="sKPG98DoeoIHlue1-gec-29" edge="1">
          <mxGeometry relative="1" as="geometry" />
        </mxCell>
        <mxCell id="sKPG98DoeoIHlue1-gec-25" value="Outro team member deve realizar o code review e realizar o merge para DEV" style="whiteSpace=wrap;html=1;rounded=1;" parent="1" vertex="1">
          <mxGeometry x="215" y="660" width="120" height="60" as="geometry" />
        </mxCell>
        <mxCell id="sKPG98DoeoIHlue1-gec-26" value="" style="edgeStyle=orthogonalEdgeStyle;rounded=0;orthogonalLoop=1;jettySize=auto;html=1;" parent="1" source="sKPG98DoeoIHlue1-gec-27" target="sKPG98DoeoIHlue1-gec-25" edge="1">
          <mxGeometry relative="1" as="geometry" />
        </mxCell>
        <mxCell id="sKPG98DoeoIHlue1-gec-27" value="Realizar um Pull Request da sua branch para DEV" style="rounded=1;whiteSpace=wrap;html=1;" parent="1" vertex="1">
          <mxGeometry x="45" y="660" width="120" height="60" as="geometry" />
        </mxCell>
        <mxCell id="sKPG98DoeoIHlue1-gec-34" value="" style="edgeStyle=orthogonalEdgeStyle;rounded=0;orthogonalLoop=1;jettySize=auto;html=1;" parent="1" source="sKPG98DoeoIHlue1-gec-29" target="sKPG98DoeoIHlue1-gec-33" edge="1">
          <mxGeometry relative="1" as="geometry">
            <Array as="points">
              <mxPoint x="543" y="690" />
              <mxPoint x="543" y="730" />
            </Array>
          </mxGeometry>
        </mxCell>
        <mxCell id="sKPG98DoeoIHlue1-gec-29" value="Testar a solução em DEV" style="whiteSpace=wrap;html=1;rounded=1;" parent="1" vertex="1">
          <mxGeometry x="385" y="660" width="120" height="60" as="geometry" />
        </mxCell>
        <mxCell id="sKPG98DoeoIHlue1-gec-32" value="Pull Request para branch QAS" style="whiteSpace=wrap;html=1;rounded=1;" parent="1" vertex="1">
          <mxGeometry x="570" y="620" width="120" height="60" as="geometry" />
        </mxCell>
        <mxCell id="sKPG98DoeoIHlue1-gec-33" value="Rollback da versão" style="whiteSpace=wrap;html=1;rounded=1;" parent="1" vertex="1">
          <mxGeometry x="570" y="700" width="120" height="60" as="geometry" />
        </mxCell>
        <mxCell id="sKPG98DoeoIHlue1-gec-39" value="" style="edgeStyle=orthogonalEdgeStyle;rounded=0;orthogonalLoop=1;jettySize=auto;html=1;exitX=1;exitY=0.5;exitDx=0;exitDy=0;" parent="1" source="sKPG98DoeoIHlue1-gec-29" edge="1">
          <mxGeometry relative="1" as="geometry">
            <mxPoint x="505" y="670" as="sourcePoint" />
            <mxPoint x="570" y="650" as="targetPoint" />
            <Array as="points">
              <mxPoint x="543" y="690" />
              <mxPoint x="543" y="650" />
            </Array>
          </mxGeometry>
        </mxCell>
        <mxCell id="sKPG98DoeoIHlue1-gec-40" value="Teste sucesso" style="text;html=1;strokeColor=none;fillColor=none;align=left;verticalAlign=middle;whiteSpace=wrap;rounded=0;" parent="1" vertex="1">
          <mxGeometry x="480" y="620" width="85" height="30" as="geometry" />
        </mxCell>
        <mxCell id="sKPG98DoeoIHlue1-gec-41" value="Teste falho" style="text;html=1;strokeColor=none;fillColor=none;align=left;verticalAlign=middle;whiteSpace=wrap;rounded=0;" parent="1" vertex="1">
          <mxGeometry x="495" y="730" width="75" height="30" as="geometry" />
        </mxCell>
        <mxCell id="sKPG98DoeoIHlue1-gec-42" value="Realizar pull request e teste em DEV:" style="text;html=1;strokeColor=none;fillColor=none;align=left;verticalAlign=middle;whiteSpace=wrap;rounded=0;" parent="1" vertex="1">
          <mxGeometry x="40" y="570" width="290" height="30" as="geometry" />
        </mxCell>
        <mxCell id="9qRX3K5gcMrkw_FAlSWL-2" value="Se (teste sucesso):" style="text;html=1;strokeColor=none;fillColor=none;align=left;verticalAlign=middle;whiteSpace=wrap;rounded=0;" vertex="1" parent="1">
          <mxGeometry x="40" y="800" width="290" height="30" as="geometry" />
        </mxCell>
        <mxCell id="9qRX3K5gcMrkw_FAlSWL-3" value="Senão:" style="text;html=1;strokeColor=none;fillColor=none;align=left;verticalAlign=middle;whiteSpace=wrap;rounded=0;" vertex="1" parent="1">
          <mxGeometry x="40" y="900" width="290" height="30" as="geometry" />
        </mxCell>
        <mxCell id="9qRX3K5gcMrkw_FAlSWL-6" value="" style="edgeStyle=orthogonalEdgeStyle;rounded=0;orthogonalLoop=1;jettySize=auto;html=1;" edge="1" parent="1" source="9qRX3K5gcMrkw_FAlSWL-4">
          <mxGeometry relative="1" as="geometry">
            <mxPoint x="250" y="860" as="targetPoint" />
          </mxGeometry>
        </mxCell>
        <mxCell id="9qRX3K5gcMrkw_FAlSWL-4" value="Realizar Pull Request para branch QAS" style="whiteSpace=wrap;html=1;rounded=1;" vertex="1" parent="1">
          <mxGeometry x="80" y="830" width="120" height="60" as="geometry" />
        </mxCell>
        <mxCell id="9qRX3K5gcMrkw_FAlSWL-10" value="" style="edgeStyle=orthogonalEdgeStyle;rounded=0;orthogonalLoop=1;jettySize=auto;html=1;" edge="1" parent="1" source="9qRX3K5gcMrkw_FAlSWL-7" target="9qRX3K5gcMrkw_FAlSWL-9">
          <mxGeometry relative="1" as="geometry" />
        </mxCell>
        <mxCell id="9qRX3K5gcMrkw_FAlSWL-7" value="Outro team member deve realizar o code review e realizar o merge para QAS" style="whiteSpace=wrap;html=1;rounded=1;" vertex="1" parent="1">
          <mxGeometry x="250" y="830" width="120" height="60" as="geometry" />
        </mxCell>
        <mxCell id="9qRX3K5gcMrkw_FAlSWL-9" value="Business deve testar a solução em QAS" style="whiteSpace=wrap;html=1;rounded=1;" vertex="1" parent="1">
          <mxGeometry x="420" y="830" width="120" height="60" as="geometry" />
        </mxCell>
        <mxCell id="9qRX3K5gcMrkw_FAlSWL-11" value="Voltar a versão anterior ao seu commit&amp;nbsp;" style="whiteSpace=wrap;html=1;rounded=1;" vertex="1" parent="1">
          <mxGeometry x="80" y="930" width="120" height="60" as="geometry" />
        </mxCell>
      </root>
    </mxGraphModel>
  </diagram>
</mxfile>
